<?xml version="1.0" encoding="UTF-8"?>
<svg width="32" height="32" viewBox="0 0 32 32" fill="none" xmlns="http://www.w3.org/2000/svg">
  <!-- Background circle -->
  <circle cx="16" cy="16" r="15" fill="#f5f7f0" stroke="#4a5d3a" stroke-width="1"/>

  <!-- Farm field rows -->
  <rect x="4" y="20" width="24" height="2" fill="#6b7c32" opacity="0.8"/>
  <rect x="4" y="23" width="24" height="2" fill="#5a6b2a" opacity="0.6"/>
  <rect x="4" y="26" width="24" height="2" fill="#4a5d3a" opacity="0.4"/>

  <!-- Plant stems -->
  <rect x="10" y="10" width="1" height="10" fill="#4a5d3a"/>
  <rect x="14" y="9" width="1" height="11" fill="#4a5d3a"/>
  <rect x="18" y="11" width="1" height="9" fill="#4a5d3a"/>
  <rect x="22" y="10" width="1" height="10" fill="#4a5d3a"/>

  <!-- Leaves -->
  <ellipse cx="9" cy="9" rx="3" ry="2" fill="#6b7c32"/>
  <ellipse cx="15" cy="8" rx="3" ry="2" fill="#6b7c32"/>
  <ellipse cx="19" cy="10" rx="3" ry="2" fill="#6b7c32"/>
  <ellipse cx="23" cy="9" rx="3" ry="2" fill="#6b7c32"/>

  <!-- Small accent dots -->
  <circle cx="8" cy="12" r="0.5" fill="#8b9c3a"/>
  <circle cx="16" cy="11" r="0.5" fill="#8b9c3a"/>
  <circle cx="20" cy="13" r="0.5" fill="#8b9c3a"/>
  <circle cx="24" cy="12" r="0.5" fill="#8b9c3a"/>
</svg>
