<svg width="32" height="32" viewBox="0 0 32 32" fill="none" xmlns="http://www.w3.org/2000/svg">
  <rect width="32" height="32" rx="8" fill="#10B981"/>
  <path d="M16 8C11.58 8 8 11.58 8 16C8 20.42 11.58 24 16 24C20.42 24 24 20.42 24 16C24 11.58 20.42 8 16 8ZM14 21.9V22H18V21.9C16.72 21.64 15.5 20.95 14.55 19.95C13.6 18.95 13 17.65 13 16.25C13 15.56 13.56 15 14.25 15C14.94 15 15.5 15.56 15.5 16.25C15.5 17.22 16.28 18 17.25 18C18.22 18 19 17.22 19 16.25C19 14.18 17.32 12.5 15.25 12.5H14.5C13.67 12.5 13 13.17 13 14V15.5H11V14C11 12.07 12.57 10.5 14.5 10.5H15.25C17.82 10.5 20 12.68 20 15.25C20 17.82 17.82 20 15.25 20C14.84 20 14.5 19.66 14.5 19.25C14.5 18.84 14.84 18.5 15.25 18.5C16.77 18.5 18 17.27 18 15.75C18 13.51 16.24 11.75 14 11.75H13.5C12.67 11.75 12 12.42 12 13.25V15.5H10V13.25C10 11.32 11.57 9.75 13.5 9.75H14.25C16.49 9.75 18.25 11.51 18.25 13.75C18.25 14.16 18.59 14.5 19 14.5C19.41 14.5 19.75 14.16 19.75 13.75C19.75 10.85 17.4 8.5 14.5 8.5H14C9.58 8.5 6 12.08 6 16.5C6 20.92 9.58 24.5 14 24.5H18C22.42 24.5 26 20.92 26 16.5C26 12.08 22.42 8.5 18 8.5H17.5C16.67 8.5 16 9.17 16 10V11.5H14V10C14 8.07 15.57 6.5 17.5 6.5H18C23.25 6.5 27.5 10.75 27.5 16C27.5 21.25 23.25 25.5 18 25.5H14C8.75 25.5 4.5 21.25 4.5 16C4.5 10.75 8.75 6.5 14 6.5H16C21.25 6.5 25.5 10.75 25.5 16C25.5 16.41 25.16 16.75 24.75 16.75C24.34 16.75 24 16.41 24 16C24 11.58 20.42 8 16 8Z" fill="white"/>
</svg>
