<?xml version="1.0" encoding="UTF-8"?>
<svg width="64" height="64" viewBox="0 0 64 64" fill="none" xmlns="http://www.w3.org/2000/svg">
  <!-- Background circle -->
  <circle cx="32" cy="32" r="30" fill="url(#gradient)" stroke="#4a5d3a" stroke-width="2"/>

  <!-- Farm field rows -->
  <rect x="8" y="40" width="48" height="4" fill="#6b7c32" opacity="0.8"/>
  <rect x="8" y="46" width="48" height="4" fill="#5a6b2a" opacity="0.6"/>
  <rect x="8" y="52" width="48" height="4" fill="#4a5d3a" opacity="0.4"/>

  <!-- Plant stems -->
  <rect x="20" y="20" width="2" height="20" fill="#4a5d3a"/>
  <rect x="28" y="18" width="2" height="22" fill="#4a5d3a"/>
  <rect x="36" y="22" width="2" height="18" fill="#4a5d3a"/>
  <rect x="44" y="20" width="2" height="20" fill="#4a5d3a"/>

  <!-- Leaves -->
  <ellipse cx="18" cy="18" rx="6" ry="4" fill="#6b7c32"/>
  <ellipse cx="30" cy="16" rx="6" ry="4" fill="#6b7c32"/>
  <ellipse cx="38" cy="20" rx="6" ry="4" fill="#6b7c32"/>
  <ellipse cx="46" cy="18" rx="6" ry="4" fill="#6b7c32"/>

  <!-- Small accent dots -->
  <circle cx="16" cy="24" r="1" fill="#8b9c3a"/>
  <circle cx="32" cy="22" r="1" fill="#8b9c3a"/>
  <circle cx="40" cy="26" r="1" fill="#8b9c3a"/>
  <circle cx="48" cy="24" r="1" fill="#8b9c3a"/>

  <!-- Gradient definition -->
  <defs>
    <linearGradient id="gradient" x1="0%" y1="0%" x2="100%" y2="100%">
      <stop offset="0%" style="stop-color:#f5f7f0"/>
      <stop offset="100%" style="stop-color:#e8f0e0"/>
    </linearGradient>
  </defs>
</svg>
